<svg width="256" height="256" viewBox="0 0 256 256" fill="none" xmlns="http://www.w3.org/2000/svg">
<path d="M41 127.288C41.2275 94.288 54.5663 62.701 78.0827 39.4242C101.611 16.1472 133.426 3.05984 166.605 3H175.8V22.8645H166.737C138.826 22.8765 112.052 33.8564 92.236 53.4096C72.4191 72.963 61.1758 99.5088 60.9483 127.276H41V127.288Z" fill="#9C7CFF"/>
<path d="M79.3172 253V233.136H88.5131C116.424 233.1 143.185 222.108 162.978 202.543C182.771 182.977 194.002 156.431 194.217 128.676H214.202C213.974 161.688 200.636 193.287 177.095 216.564C153.554 239.841 121.717 252.928 88.5253 252.964L79.3172 253Z" fill="#9C7CFF"/>
<path d="M79.3172 214.887V195.023H88.5131C106.258 194.999 123.285 188.031 135.906 175.614C148.525 163.197 155.71 146.337 155.914 128.676H175.886C175.67 151.594 166.367 173.495 150.01 189.623C133.654 205.752 111.551 214.816 88.5131 214.84L79.3172 214.887Z" fill="#9C7CFF"/>
<path d="M79.3172 127.288C79.5328 104.358 88.8364 82.434 105.204 66.2939C121.584 50.1531 143.7 41.089 166.75 41.077H175.946V60.9416H166.75C148.992 60.9416 131.942 67.9103 119.31 80.3269C106.677 92.7434 99.4813 109.615 99.2773 127.288H79.3172Z" fill="#9C7CFF"/>
<path d="M79.2786 176.788V156.923H88.4744C96.066 156.923 103.358 153.966 108.782 148.685C114.218 143.405 117.355 136.233 117.547 128.689V127.959C117.571 115.003 122.768 102.598 131.987 93.4619C141.207 84.3142 153.696 79.1897 166.723 79.2012H175.919V99.0657H166.723C159.12 99.0542 151.816 102 146.368 107.28C140.919 112.561 137.771 119.745 137.579 127.3V128.03C137.567 140.974 132.395 153.379 123.187 162.527C113.991 171.675 101.514 176.824 88.4988 176.835L79.2786 176.788Z" fill="#9C7CFF"/>
</svg>
